<svg xmlns="http://www.w3.org/2000/svg" viewBox="0 0 199 136">
  <defs>
    <style>
      .cls-1 {
        fill: #ffad7f;
        opacity: 0.896;
      }

      .cls-2 {
        fill: #5cddff;
      }

      .cls-3 {
        fill: #4d7882;
      }

      .cls-4, .cls-5 {
        fill: #fff;
      }

      .cls-5 {
        font-size: 14px;
        font-family: AvenirNext-Bold, Avenir Next;
        font-weight: 700;
        letter-spacing: -0.05em;
      }

      .cls-6, .cls-7, .cls-9 {
        fill: none;
      }

      .cls-6, .cls-7 {
        stroke: #fff;
        stroke-width: 1.5px;
      }

      .cls-7 {
        stroke-linecap: round;
      }

      .cls-8 {
        stroke: none;
      }
    </style>
  </defs>
  <g id="Group_19" data-name="Group 19" transform="translate(-846 -2457)">
    <path id="Intersection_1" data-name="Intersection 1" class="cls-1" d="M70.974,106.5a71.306,71.306,0,0,1,30.764-28.52A71.306,71.306,0,0,1,132.5,106.5a71.306,71.306,0,0,1-30.764,28.52A71.306,71.306,0,0,1,70.974,106.5Z" transform="translate(846 2418)"/>
    <g id="Group_16" data-name="Group 16" transform="translate(-13 2719)">
      <g id="Group_5" data-name="Group 5" transform="translate(948 -207)">
        <path id="Path_22" data-name="Path 22" class="cls-2" d="M27.878,17.724A12.112,12.112,0,0,1,14.657,27.962h-.1a.4.4,0,0,1-.213-.7c2.02-1.66,4.231-3.672,6.471-5.876a92.6,92.6,0,0,0,6.39-7.051.389.389,0,0,1,.69.206A12.486,12.486,0,0,1,27.878,17.724Z" transform="translate(-3.867 -3.82)"/>
        <path id="Path_23" data-name="Path 23" class="cls-2" d="M26.388,2.261A20.2,20.2,0,0,1,23.31,7.446a83.666,83.666,0,0,1-7.668,8.711,86.432,86.432,0,0,1-8.079,7.22A22.469,22.469,0,0,1,1.753,26.9c-.668.213-1.153.2-1.41-.059-.734-.734.47-3.166,2.938-6.442A12.119,12.119,0,0,1,20.453,3.34C23.443,1.2,25.654.189,26.329.858,26.586,1.115,26.594,1.6,26.388,2.261Z" transform="translate(-0.129 -0.109)"/>
        <path id="Path_24" data-name="Path 24" class="cls-3" d="M24.107,7.784a84.355,84.355,0,0,1-7.462,8.432c-1.653,1.645-3.276,3.166-4.826,4.51a10.283,10.283,0,1,1,8.2-18.473c.154.1.294.206.441.316l.353.279a10.283,10.283,0,0,1,3.291,4.936Z" transform="translate(-1.131 -0.167)"/>
        <path id="Path_25" data-name="Path 25" class="cls-4" d="M27.39,2.319A20.2,20.2,0,0,1,24.312,7.5l-.206.272a84.357,84.357,0,0,1-7.462,8.439c-1.653,1.645-3.276,3.166-4.826,4.51a10.283,10.283,0,1,1,8.2-18.473c.154.1.294.206.441.316l.353.279c.22.169.433.36.639.551,2.989-2.145,5.2-3.151,5.876-2.483C27.588,1.173,27.6,1.658,27.39,2.319Z" transform="translate(-1.131 -0.167)"/>
      </g>
    </g>
    <text id="Flexible" class="cls-5" transform="translate(995 2471)"><tspan x="0" y="0">Flexible</tspan></text>
    <text id="Modern" class="cls-5" transform="translate(993 2588)"><tspan x="0" y="0">Modern</tspan></text>
    <text id="Smart" class="cls-5" transform="translate(857 2471)"><tspan x="0" y="0">Smart</tspan></text>
    <text id="Effective" class="cls-5" transform="translate(846 2588)"><tspan x="0" y="0">Effective</tspan></text>
    <g id="Ellipse_113" data-name="Ellipse 113" class="cls-6" transform="translate(904 2481)">
      <circle class="cls-8" cx="44" cy="44" r="44"/>
      <circle class="cls-9" cx="44" cy="44" r="43.25"/>
    </g>
    <g id="Group_17" data-name="Group 17">
      <path id="Path_29" data-name="Path 29" class="cls-7" d="M978.5,2495.98l17.388-17.388" transform="translate(1 -1)"/>
      <path id="Path_30" data-name="Path 30" class="cls-7" d="M978.5,2495.98l17.388-17.388" transform="translate(-77 78)"/>
    </g>
    <g id="Group_18" data-name="Group 18" transform="translate(3473.982 1575.591) rotate(90)">
      <path id="Path_29-2" data-name="Path 29" class="cls-7" d="M978.5,2495.98l17.388-17.388" transform="translate(1 -1)"/>
      <path id="Path_30-2" data-name="Path 30" class="cls-7" d="M978.5,2495.98l17.388-17.388" transform="translate(-77 78)"/>
    </g>
  </g>
</svg>
